# xmcd
#
# Track frame offsets: 
#        150
#        10588
#        20178
#        28733
#        40968
#        50035
#        58388
#        66881
#        77869
#        91160
#        103948
#        113473
#        126432
#        135604
#        147441
#        157719
#        166973
#        180069
#        189692
#        200482
#
# Disc length: 2845 seconds
#
# Revision: 2
# Processed by: cddbd v1.5.2PL0 Copyright (c) Steve Scherf et al.
# Submitted via: ExactAudioCopy v1.0b3
#
DISCID=160b1b14
DTITLE=Paul, Les and Mary Ford - Greatest Hits [Disc 2]
DYEAR=2006
DGENRE=Pop
TTITLE0=Mocking Bird Hill
TTITLE1=How High The Moon?
TTITLE2=Just One More Chance
TTITLE3=I Wish I'd Never Seen Sunshine
TTITLE4=Whispering
TTITLE5=Meet Mr. Callaghan
TTITLE6=Lady Of Spain
TTITLE7=My Baby's Coming Home
TTITLE8=Smoke Rings
TTITLE9=I'm Confessin'
TTITLE10=Tiger Rag
TTITLE11=Vaya Con Dios
TTITLE12=Johnny (Is The Boy For Me)
TTITLE13=The Kangaroo
TTITLE14=I'm Sitting On Top Of The Moon
TTITLE15=Bye Bye Blues
TTITLE16=I'm A Fool To Care
TTITLE17=Whither Thou Goest
TTITLE18=Mandolino
TTITLE19=I Really Don't Want To Know
EXTD=
EXTT0=
EXTT1=
EXTT2=
EXTT3=
EXTT4=
EXTT5=
EXTT6=
EXTT7=
EXTT8=
EXTT9=
EXTT10=
EXTT11=
EXTT12=
EXTT13=
EXTT14=
EXTT15=
EXTT16=
EXTT17=
EXTT18=
EXTT19=
PLAYORDER=
